<svg xmlns="http://www.w3.org/2000/svg" data-name="Layer 1" viewBox="0 0 100 125" x="0px" y="0px"><title>Get Bent icons</title><path d="M50.11,73.23a2.93,2.93,0,0,1-2-.81c-1.76-1.69-7-5.67-18.08-6.21a4.18,4.18,0,0,1-4-4.16V31.3a4.33,4.33,0,0,1,.87-2.69A4.17,4.17,0,0,1,30.18,27h0c12,0,18.19,5.26,20.3,7.5a3.73,3.73,0,0,1,1,2.54V60.61a1.5,1.5,0,0,1-1.5,1.5h0a1.5,1.5,0,0,1-1.5-1.5V37a.68.68,0,0,0-.2-.49C46.86,35,41.3,30,30.19,30h0a1.19,1.19,0,0,0-.85.35,1.11,1.11,0,0,0-.33.79V62.05a1.19,1.19,0,0,0,1.15,1.17c12,.58,18,5.11,20,7,2.17-1.79,8.63-6,19.74-7A1.17,1.17,0,0,0,71,62.13V31a1.23,1.23,0,0,0-1.16-1.18,24.49,24.49,0,0,0-13.41,3.45.49.49,0,0,1-.67-.17l-1-1.72a.48.48,0,0,1,.17-.68A27.44,27.44,0,0,1,70,26.8,4.25,4.25,0,0,1,74,31V62.13a4.21,4.21,0,0,1-3.86,4.16C59.85,67.13,54,71,51.93,72.6A2.92,2.92,0,0,1,50.11,73.23Z"/><text x="0" y="115" fill="#000000" font-size="5px" font-weight="bold" font-family="'Helvetica Neue', Helvetica, Arial-Unicode, Arial, Sans-serif">Created by Christian Jackson</text><text x="0" y="120" fill="#000000" font-size="5px" font-weight="bold" font-family="'Helvetica Neue', Helvetica, Arial-Unicode, Arial, Sans-serif">from the Noun Project</text></svg>
