<svg xmlns="http://www.w3.org/2000/svg" xmlns:xlink="http://www.w3.org/1999/xlink" version="1.1" x="0px" y="0px" viewBox="0 0 100 125" style="enable-background:new 0 0 100 100;" xml:space="preserve"><g><path d="M82.2,90H62V66c0-1.1-0.9-2-2-2H40c-1.1,0-2,0.9-2,2v24H17.8V46.7h-4V92c0,1.1,0.9,2,2,2H40c1.1,0,2-0.9,2-2V68h16v24   c0,1.1,0.9,2,2,2h24.2c1.1,0,2-0.9,2-2V46.7h-4V90z"/><path d="M48.7,6.5L2.2,45l2.6,3.1L50,10.6l45.2,37.5l2.6-3.1L51.3,6.5C50.5,5.8,49.5,5.8,48.7,6.5z"/></g><text x="0" y="115" fill="#000000" font-size="5px" font-weight="bold" font-family="'Helvetica Neue', Helvetica, Arial-Unicode, Arial, Sans-serif">Created by Kuber</text><text x="0" y="120" fill="#000000" font-size="5px" font-weight="bold" font-family="'Helvetica Neue', Helvetica, Arial-Unicode, Arial, Sans-serif">from the Noun Project</text></svg>