<svg xmlns="http://www.w3.org/2000/svg" viewBox="10 10 80 80" width="48px" height="48px">
  <g data-name="Group">
    <path data-name="Path" d="M42.4,23.6a2,2,0,0,0-2.8,0l-25,25a2,2,0,0,0,0,2.8l25,25a2,2,0,0,0,2.8-2.8L18.8,50,42.4,26.4A2,2,0,0,0,42.4,23.6Z"/>
    <path data-name="Path" d="M57.6,76.4a2,2,0,0,0,2.8,0l25-25a2,2,0,0,0,0-2.8l-25-25a2,2,0,0,0-2.8,2.8L81.2,50,57.6,73.6A2,2,0,0,0,57.6,76.4Z"/>
  </g>
  <text x="0" y="115" font-size="5px" font-weight="bold" font-family="'Helvetica Neue', Helvetica, Arial-Unicode, Arial, Sans-serif">Created by rajakumara</text>
  <text x="0" y="120" fill="#000000" font-size="5px" font-weight="bold" font-family="'Helvetica Neue', Helvetica, Arial-Unicode, Arial, Sans-serif">from the Noun Project</text>
</svg>
