<svg xmlns="http://www.w3.org/2000/svg" viewBox="0 0 50 82.5" x="0px" y="0px"><path fill="#000000" d="M680,595 L674.694396,595 C669.723834,595 665.694396,590.970563 665.694396,586 C665.694396,585.75054 665.704768,585.501189 665.725485,585.252591 L668.392151,553.252591 C668.78087,548.587962 672.680265,545 677.361063,545 L680,545 L680,541 C680,538.790861 681.790861,537 684,537 L696,537 C698.209139,537 700,538.790861 700,541 L700,545 L702.638937,545 C707.319735,545 711.21913,548.587962 711.607849,553.252591 L714.274515,585.252591 C714.687298,590.205984 711.006406,594.556129 706.053013,594.968912 C705.804415,594.989628 705.555063,595 705.305604,595 L700,595 L700,599 C700,601.209139 698.209139,603 696,603 L684,603 C681.790861,603 680,601.209139 680,599 L680,595 Z M699.806845,593 L705.305604,593 C705.499628,593 705.693568,592.991933 705.886922,592.97582 C707.7276,592.82243 709.342359,591.970004 710.491899,590.701351 C695.403234,581.976046 687.857622,577.612631 687.855064,577.611106 L681.316651,581.676486 L699.806845,593 Z M695.977292,593 L687.66783,587.911233 L679.480192,593 L695.977292,593 Z M675.691386,593 L685.759438,586.742521 L679.416399,582.858003 L668.658326,589.547037 C669.875211,591.613375 672.122872,593 674.694396,593 L675.691386,593 Z M689.780187,576.414125 L711.612675,589.039141 C712.138593,587.950341 712.389109,586.710904 712.281424,585.418682 L711.960737,581.570434 L696.187048,572.339962 C696.112511,572.444655 696.016429,572.536625 695.900466,572.608726 L689.780187,576.414125 Z M681.709176,561.550506 L711.757731,579.134367 L711.05022,570.644239 L687.689508,557.882359 L681.709176,561.550506 Z M667.894135,587.66711 L694.310832,571.242035 L688.24192,567.69062 L668.182538,579.851142 L667.718576,585.418682 C667.702463,585.612036 667.694396,585.805976 667.694396,586 C667.694396,586.574495 667.763603,587.132826 667.894135,587.66711 Z M686.278854,566.54187 L679.909283,562.814513 C679.865641,562.788975 679.824652,562.760641 679.786409,562.729871 L669.061096,569.30844 L668.387809,577.387889 L686.278854,566.54187 Z M689.654715,556.676962 L710.851247,568.256558 L710.180737,560.210436 L696.038283,552.888029 C696.001739,552.869109 695.966854,552.848248 695.933689,552.825637 L689.654715,556.676962 Z M709.984592,557.856702 L709.614757,553.418682 C709.376439,550.558867 707.441533,548.21937 704.849713,547.356828 L697.917494,551.608833 L709.984592,557.856702 Z M669.267149,566.835805 L701.606279,547 L690.610029,547 L669.883988,559.433742 L669.267149,566.835805 Z M670.088573,556.978722 L686.722295,547 L677.361063,547 C673.720443,547 670.68758,549.790637 670.385243,553.418682 L670.088573,556.978722 Z M698,541 C698,539.895431 697.104569,539 696,539 L684,539 C682.895431,539 682,539.895431 682,541 L682,545 L698,545 L698,541 Z M682,599 C682,600.104569 682.895431,601 684,601 L696,601 C697.104569,601 698,600.104569 698,599 L698,595 L682,595 L682,599 Z" transform="translate(-665 -537)"/><text x="0" y="81" fill="#000000" font-size="5px" font-weight="bold" font-family="'Helvetica Neue', Helvetica, Arial-Unicode, Arial, Sans-serif">Created by Andrejs Kirma</text><text x="0" y="86" fill="#000000" font-size="5px" font-weight="bold" font-family="'Helvetica Neue', Helvetica, Arial-Unicode, Arial, Sans-serif">from the Noun Project</text></svg>